<svg width="38" height="38" viewBox="0 0 38 38" fill="none" xmlns="http://www.w3.org/2000/svg">
<path d="M21.0834 10.6667C25.4647 10.6667 27.3334 12.5355 27.3334 16.9167H31.5001C31.5001 10.198 27.8022 6.50005 21.0834 6.50005V10.6667ZM28.2126 22.0063C27.8123 21.6425 27.2862 21.4484 26.7455 21.4651C26.2048 21.4818 25.6918 21.708 25.3147 22.0959L20.3293 27.223C19.1293 26.9938 16.7168 26.2417 14.2334 23.7646C11.7501 21.2792 10.998 18.8605 10.7751 17.6688L15.898 12.6813C16.2864 12.3045 16.5129 11.7913 16.5296 11.2505C16.5463 10.7096 16.3519 10.1835 15.9876 9.78338L8.28968 1.3188C7.92519 0.91746 7.4186 0.674017 6.8775 0.640175C6.3364 0.606332 5.80343 0.784755 5.39177 1.13755L0.870933 5.01463C0.510748 5.37612 0.295765 5.85724 0.266766 6.36672C0.235516 6.88755 -0.360317 19.225 9.20635 28.7959C17.5522 37.1396 28.0063 37.75 30.8855 37.75C31.3063 37.75 31.5647 37.7375 31.6334 37.7334C32.1428 37.7049 32.6237 37.4889 32.9834 37.1271L36.8584 32.6042C37.2115 32.1928 37.3903 31.66 37.3568 31.1189C37.3234 30.5778 37.0803 30.0711 36.6793 29.7063L28.2126 22.0063Z" fill="#BB7A3B"/>
</svg>
